<?xml version="1.0" encoding="utf-8"?>
<!-- Generator: Adobe Illustrator 16.0.0, SVG Export Plug-In . SVG Version: 6.00 Build 0)  -->
<!DOCTYPE svg PUBLIC "-//W3C//DTD SVG 1.1//EN" "http://www.w3.org/Graphics/SVG/1.1/DTD/svg11.dtd">
<svg version="1.1" id="Layer_1" xmlns="http://www.w3.org/2000/svg" xmlns:xlink="http://www.w3.org/1999/xlink" x="0px" y="0px"
	 width="574.577px" height="220.489px" viewBox="0 0 574.577 220.489" enable-background="new 0 0 574.577 220.489"
	 xml:space="preserve">
<g>
	<path fill="#FFFFFF" d="M168.972,158.953c-18.435,0-34.973,2.049-46.299,5.295c-4.234,1.213-7.746,2.594-10.349,4.098
		c-0.104,0.953-0.182,1.914-0.24,2.881c-0.069,1.127-0.111,2.262-0.111,3.406c0,1.047,0.031,2.086,0.09,3.119
		c0.06,1.064,0.147,2.121,0.262,3.17c2.069,1.195,4.71,2.313,7.833,3.332c11.312,3.686,28.967,6.059,48.814,6.059
		c18.28,0,34.698-2.012,46.016-5.211v-20.938C203.67,160.967,187.252,158.953,168.972,158.953z M140.802,181.891l-0.002-14.516
		l10.506,7.258l10.504,7.258H140.802z M197.144,181.891h-21.008l10.504-7.258l10.506-7.258L197.144,181.891z"/>
	<path fill="#FFFFFF" d="M202.987,9.994H22.947c-6.627,0-12,5.373-12,12v180.04c0,6.629,5.373,12,12,12h104.859
		c-6.729-7.029-11.679-15.773-14.117-25.518c-5.67,2.881-12.619,4.584-20.136,4.584c-13.156,0-24.591-5.199-30.423-12.848
		c5.832-7.646,17.267-12.846,30.423-12.846c0.294,0,0.583,0.016,0.875,0.021c-0.008-0.008-0.016-0.014-0.023-0.021
		c-8.765-8.766-12.624-20.145-10.979-29.56c9.417-1.646,20.796,2.213,29.561,10.978c1.231,1.23,2.354,2.518,3.391,3.84
		c8.601-20.572,28.901-35.031,52.593-35.031c18.907,0,35.648,9.214,46.016,23.388V21.994
		C214.987,15.367,209.614,9.994,202.987,9.994z M43.457,87.397c-0.348,0.332-1.043,0.332-1.389,0l-8.342-5.81l29.081-20.825
		c0.463-0.254,0.463-0.751,0-1.166l-29.081-20.83l8.342-5.805c0.346-0.252,1.041-0.252,1.389,0l37.307,26.635
		c0.347,0.415,0.347,0.912,0,1.166L43.457,87.397z M132.256,87.645H81.023v-11.83h51.232V87.645z"/>
	<g>
		<path fill="#FFFFFF" d="M289.508,132.154l-33.038-26.525l0.036,26.38h-12.805V79.47l33.074,24.696V80.201l12.732,0.073V132.154z"
			/>
		<path fill="#FFFFFF" d="M302.679,87.189c-0.536,0.902-1.269,1.635-2.195,2.195c-0.927,0.562-1.952,0.842-3.073,0.842
			c-1.122,0-2.135-0.269-3.037-0.806c-0.927-0.561-1.658-1.304-2.195-2.231c-0.561-0.976-0.841-2.013-0.841-3.109
			c0-1.122,0.269-2.146,0.805-3.074c0.585-0.951,1.329-1.694,2.231-2.231c0.902-0.536,1.915-0.805,3.037-0.805
			c1.121,0,2.146,0.269,3.073,0.805c0.902,0.537,1.634,1.28,2.195,2.231c0.536,0.928,0.806,1.952,0.806,3.074
			C303.484,85.25,303.215,86.287,302.679,87.189z M303.447,94.689v37.502h-11.672V94.727L303.447,94.689z"/>
		<path fill="#FFFFFF" d="M321.484,103.764c-2.977,0.122-4.463,2.195-4.463,6.22v22.135h-11.709v-22.135
			c0-10.659,5.391-16.257,16.172-16.794h0.658c10.781,0.537,16.172,6.135,16.172,16.794v22.135h-11.708v-22.135
			c0-4.024-1.487-6.098-4.464-6.22H321.484z"/>
		<path fill="#FFFFFF" d="M340.144,135.484c1.999,0,3.562-0.146,4.683-0.439c1.146-0.269,2.013-0.878,2.598-1.829
			c0.586-0.928,0.879-2.317,0.879-4.171V94.689h11.671v35.489c0,2.731-0.244,5.098-0.731,7.099
			c-0.537,1.999-1.391,3.622-2.562,4.865c-1.22,1.342-2.866,2.317-4.938,2.928c-2.074,0.658-4.721,0.987-7.939,0.987
			L340.144,135.484z M359.425,87.189c-0.536,0.902-1.269,1.635-2.195,2.195c-0.927,0.562-1.952,0.842-3.073,0.842
			c-1.122,0-2.135-0.269-3.037-0.806c-0.927-0.561-1.658-1.304-2.195-2.231c-0.561-0.976-0.841-2.013-0.841-3.109
			c0-1.122,0.269-2.146,0.805-3.074c0.585-0.951,1.329-1.694,2.231-2.231c0.902-0.536,1.915-0.805,3.037-0.805
			c1.121,0,2.146,0.269,3.073,0.805c0.902,0.537,1.634,1.28,2.195,2.231c0.536,0.928,0.805,1.952,0.805,3.074
			C360.229,85.25,359.961,86.287,359.425,87.189z"/>
		<path fill="#FFFFFF" d="M395.426,131.021c-0.78,0.342-1.354,0.573-1.719,0.695c-2.586,1-5.293,1.5-8.123,1.5
			c-3.731,0-7.256-0.866-10.573-2.598c-3.317-1.756-5.952-4.146-7.903-7.171c-1.975-3.073-2.963-6.5-2.963-10.281
			c0-2.854,0.572-5.512,1.72-7.976c1.146-2.438,2.72-4.561,4.72-6.366c1.976-1.805,4.268-3.184,6.878-4.135
			c2.61-0.999,5.317-1.5,8.122-1.5c2.781,0,5.488,0.488,8.123,1.464c2.634,0.976,4.926,2.366,6.878,4.171
			c2.049,1.854,3.634,3.976,4.757,6.366c1.146,2.464,1.719,5.122,1.719,7.976l-0.036,19.062l-11.599-0.109V131.021z M377.17,108.446
			c-0.903,1.439-1.354,3.013-1.354,4.72c0,2.586,0.975,4.817,2.926,6.695c1.928,1.854,4.208,2.781,6.842,2.781
			c2.658,0,4.951-0.927,6.879-2.781c1.951-1.878,2.927-4.109,2.927-6.695c0-1.707-0.452-3.28-1.354-4.72
			c-0.903-1.438-2.11-2.585-3.622-3.439c-1.488-0.828-3.098-1.243-4.83-1.243c-1.683,0-3.28,0.415-4.793,1.243
			C379.279,105.861,378.072,107.008,377.17,108.446z"/>
		<path fill="#FFFFFF" d="M422.062,92.019h-9.988l-3.183-11.817h35.16l3.072,11.817h-12.33v40.1h-12.731V92.019z"/>
		<path fill="#FFFFFF" d="M478.918,105.227c1.098,2.464,1.646,5.099,1.646,7.903v0.329c0,0.122-0.014,0.256-0.037,0.402
			l-0.072,0.622h-4.537v0.073h-25.172c0.293,2.049,1.184,3.817,2.67,5.305c1.879,1.854,4.074,2.781,6.586,2.781
			c2.537,0,4.732-0.927,6.586-2.781l0.074-0.073l0.109-0.146l0.109-0.109l0.072-0.109l6.293,9c-1.805,1.464-3.635,2.573-5.486,3.329
			c-2.488,0.976-5.074,1.464-7.758,1.464c-3.635,0-7.012-0.866-10.135-2.598c-3.195-1.756-5.719-4.158-7.572-7.208
			c-1.903-3.049-2.854-6.476-2.854-10.28c0-2.854,0.549-5.488,1.647-7.903c1.098-2.438,2.609-4.561,4.535-6.366
			c1.951-1.853,4.146-3.256,6.586-4.207c2.512-0.976,5.109-1.464,7.793-1.464s5.27,0.488,7.758,1.464
			c2.463,0.951,4.67,2.342,6.621,4.171C476.309,100.604,477.82,102.739,478.918,105.227z M460.002,103.764
			c-1.635,0-3.17,0.415-4.609,1.243c-0.879,0.537-1.732,1.294-2.561,2.269h14.342c-0.83-0.975-1.684-1.731-2.561-2.269
			C463.174,104.179,461.637,103.764,460.002,103.764z"/>
		<path fill="#FFFFFF" d="M501.602,104.422c-0.609-0.414-1.402-0.646-2.379-0.695h-0.658c-2.977,0.122-4.463,2.195-4.463,6.22
			v22.172h-11.709v-22.172c0-10.658,5.391-16.256,16.172-16.793h0.658c0.805,0.024,1.598,0.098,2.379,0.22V104.422z"/>
		<path fill="#FFFFFF" d="M536.578,109.105v23.049h-11.744v-23.049c-0.195-3.439-1.67-5.208-4.428-5.306h-0.658
			c-2.975,0.098-4.463,2.159-4.463,6.184v22.171h-11.707v-22.171c0-10.61,5.389-16.208,16.17-16.794h0.658
			c4.293,0.244,7.732,1.269,10.318,3.073c2.561-1.805,5.988-2.829,10.281-3.073h0.658c10.781,0.586,16.172,6.184,16.172,16.794
			v22.171h-11.709v-22.171c0-4.024-1.486-6.086-4.463-6.184h-0.658C538.248,103.897,536.773,105.666,536.578,109.105z"/>
	</g>
</g>
</svg>
