<?xml version="1.0" encoding="utf-8"?>
<!-- Generator: Adobe Illustrator 16.0.0, SVG Export Plug-In . SVG Version: 6.00 Build 0)  -->
<!DOCTYPE svg PUBLIC "-//W3C//DTD SVG 1.1//EN" "http://www.w3.org/Graphics/SVG/1.1/DTD/svg11.dtd">
<svg version="1.1" id="Layer_1" xmlns="http://www.w3.org/2000/svg" xmlns:xlink="http://www.w3.org/1999/xlink" x="0px" y="0px"
	 width="622px" height="595.28px" viewBox="0 0 622 595.28" enable-background="new 0 0 622 595.28" xml:space="preserve">
<path fill="#FFFFFF" d="M459.929,424.188c-49.514,0-93.935,5.503-124.355,14.222c-11.374,3.258-20.806,6.967-27.795,11.006
	c-0.28,2.56-0.489,5.141-0.648,7.738c-0.185,3.026-0.299,6.074-0.299,9.148c0,2.812,0.085,5.603,0.241,8.378
	c0.162,2.859,0.397,5.697,0.706,8.515c5.557,3.21,12.649,6.211,21.038,8.949c30.382,9.899,77.803,16.273,131.112,16.273
	c49.101,0,93.198-5.403,123.596-13.997v-56.236C553.127,429.597,509.029,424.188,459.929,424.188z M384.266,485.797l-0.005-38.988
	l28.219,19.494l28.213,19.494H384.266z M535.597,485.797h-56.426l28.213-19.494l28.219-19.494L535.597,485.797z"/>
<path fill="#FFFFFF" d="M551.293,24.091H67.716c-17.801,0-32.231,14.432-32.231,32.231v483.576c0,17.805,14.43,32.231,32.231,32.231
	h281.646c-18.073-18.88-31.368-42.366-37.918-68.539c-15.228,7.738-33.895,12.313-54.085,12.313
	c-35.337,0-66.05-13.965-81.714-34.508c15.665-20.538,46.377-34.503,81.714-34.503c0.791,0,1.564,0.042,2.352,0.058
	c-0.021-0.021-0.042-0.036-0.062-0.058c-23.542-23.544-33.908-54.107-29.488-79.397c25.293-4.423,55.856,5.943,79.398,29.487
	c3.309,3.305,6.325,6.762,9.108,10.313c23.101-55.256,77.627-94.092,141.261-94.092c50.784,0,95.75,24.751,123.596,62.82V56.323
	C583.524,38.523,569.093,24.091,551.293,24.091z M122.802,231.992c-0.935,0.892-2.801,0.892-3.731,0l-22.406-15.604l78.11-55.936
	c1.245-0.682,1.245-2.017,0-3.132l-78.11-55.948l22.406-15.591c0.93-0.677,2.796-0.677,3.731,0l100.205,71.54
	c0.931,1.115,0.931,2.45,0,3.132L122.802,231.992z M361.313,232.659H223.705v-31.775h137.607V232.659z"/>
</svg>
