<?xml version="1.0" encoding="utf-8"?>
<!-- Generator: Adobe Illustrator 16.0.0, SVG Export Plug-In . SVG Version: 6.00 Build 0)  -->
<!DOCTYPE svg PUBLIC "-//W3C//DTD SVG 1.1//EN" "http://www.w3.org/Graphics/SVG/1.1/DTD/svg11.dtd">
<svg version="1.1" id="Layer_1" xmlns="http://www.w3.org/2000/svg" xmlns:xlink="http://www.w3.org/1999/xlink" x="0px" y="0px"
	 width="937.454px" height="1473.938px" viewBox="0 0 937.454 1473.938" enable-background="new 0 0 937.454 1473.938"
	 xml:space="preserve">
<rect fill="#1B6889" width="937.454" height="367.088"/>
<path fill="#FFFFFF" d="M234.508,202.051c-18.435,0-34.973,2.048-46.299,5.294c-4.234,1.214-7.746,2.594-10.348,4.099
	c-0.104,0.953-0.182,1.914-0.241,2.881c-0.069,1.127-0.111,2.262-0.111,3.406c0,1.047,0.032,2.086,0.09,3.119
	c0.06,1.063,0.148,2.121,0.263,3.169c2.069,1.196,4.709,2.313,7.833,3.332c11.312,3.687,28.967,6.06,48.814,6.06
	c18.28,0,34.698-2.013,46.016-5.211v-20.938C269.207,204.064,252.789,202.051,234.508,202.051z M206.338,224.989l-0.002-14.516
	l10.506,7.258l10.504,7.258H206.338z M262.68,224.989h-21.008l10.504-7.258l10.506-7.258L262.68,224.989z"/>
<path fill="#FFFFFF" d="M268.524,53.091H88.484c-6.627,0-12,5.373-12,12v180.04c0,6.628,5.373,12,12,12h104.859
	c-6.729-7.03-11.679-15.773-14.117-25.519c-5.669,2.882-12.619,4.585-20.136,4.585c-13.156,0-24.591-5.199-30.423-12.848
	c5.832-7.647,17.267-12.847,30.423-12.847c0.294,0,0.583,0.017,0.875,0.021c-0.008-0.008-0.016-0.014-0.023-0.021
	c-8.765-8.765-12.624-20.144-10.979-29.56c9.417-1.646,20.796,2.213,29.561,10.978c1.232,1.231,2.355,2.519,3.391,3.84
	c8.601-20.571,28.901-35.03,52.593-35.03c18.907,0,35.648,9.214,46.016,23.388V65.091C280.524,58.464,275.151,53.091,268.524,53.091
	z M108.993,130.495c-0.348,0.332-1.043,0.332-1.389,0l-8.342-5.81l29.081-20.825c0.463-0.254,0.463-0.751,0-1.166l-29.081-20.83
	l8.342-5.805c0.346-0.252,1.041-0.252,1.389,0l37.307,26.635c0.347,0.415,0.347,0.912,0,1.166L108.993,130.495z M197.792,130.743
	H146.56v-11.83h51.232V130.743z"/>
<path fill="#FFFFFF" d="M520.971,202.051c-18.435,0-34.973,2.048-46.299,5.294c-4.234,1.214-7.746,2.594-10.349,4.099
	c-0.104,0.953-0.182,1.914-0.24,2.881c-0.069,1.127-0.111,2.262-0.111,3.406c0,1.047,0.031,2.086,0.09,3.119
	c0.06,1.063,0.147,2.121,0.262,3.169c2.069,1.196,4.71,2.313,7.833,3.332c11.312,3.687,28.967,6.06,48.814,6.06
	c18.28,0,34.698-2.013,46.016-5.211v-20.938C555.669,204.064,539.251,202.051,520.971,202.051z M492.801,224.989l-0.002-14.516
	l10.506,7.258l10.504,7.258H492.801z M549.143,224.989h-21.008l10.504-7.258l10.506-7.258L549.143,224.989z"/>
<path fill="#FFFFFF" d="M554.987,53.091h-180.04c-6.627,0-12,5.373-12,12v180.04c0,6.628,5.373,12,12,12h104.859
	c-6.729-7.03-11.679-15.773-14.117-25.519c-5.67,2.882-12.619,4.585-20.136,4.585c-13.156,0-24.591-5.199-30.423-12.848
	c5.832-7.647,17.267-12.847,30.423-12.847c0.294,0,0.583,0.017,0.875,0.021c-0.008-0.008-0.016-0.014-0.023-0.021
	c-8.765-8.765-12.624-20.144-10.979-29.56c9.417-1.646,20.796,2.213,29.561,10.978c1.231,1.231,2.354,2.519,3.391,3.84
	c8.601-20.571,28.901-35.03,52.593-35.03c18.907,0,35.648,9.214,46.016,23.388V65.091C566.987,58.464,561.614,53.091,554.987,53.091
	z M395.456,130.495c-0.348,0.332-1.043,0.332-1.389,0l-8.342-5.81l29.081-20.825c0.463-0.254,0.463-0.751,0-1.166l-29.081-20.83
	l8.342-5.805c0.346-0.252,1.041-0.252,1.389,0l37.307,26.635c0.347,0.415,0.347,0.912,0,1.166L395.456,130.495z M484.255,130.743
	h-51.232v-11.83h51.232V130.743z"/>
<g>
	<path fill="#FFFFFF" d="M641.507,175.252l-33.038-26.525l0.036,26.38h-12.805v-52.539l33.074,24.696v-23.965l12.732,0.073V175.252z
		"/>
	<path fill="#FFFFFF" d="M654.678,130.287c-0.536,0.902-1.269,1.635-2.195,2.195c-0.927,0.562-1.952,0.842-3.073,0.842
		c-1.122,0-2.135-0.269-3.037-0.806c-0.927-0.561-1.658-1.304-2.195-2.231c-0.561-0.976-0.841-2.013-0.841-3.109
		c0-1.122,0.269-2.146,0.805-3.074c0.585-0.951,1.329-1.694,2.231-2.231c0.902-0.536,1.915-0.805,3.037-0.805
		c1.121,0,2.146,0.269,3.073,0.805c0.902,0.537,1.634,1.28,2.195,2.231c0.536,0.928,0.806,1.952,0.806,3.074
		C655.484,128.348,655.214,129.385,654.678,130.287z M655.447,137.787v37.502h-11.672v-37.465L655.447,137.787z"/>
	<path fill="#FFFFFF" d="M673.484,146.861c-2.977,0.122-4.463,2.195-4.463,6.22v22.135h-11.709v-22.135
		c0-10.659,5.391-16.257,16.172-16.794h0.658c10.781,0.537,16.172,6.135,16.172,16.794v22.135h-11.708v-22.135
		c0-4.024-1.487-6.098-4.464-6.22H673.484z"/>
	<path fill="#FFFFFF" d="M692.143,178.582c1.999,0,3.562-0.146,4.683-0.439c1.146-0.269,2.013-0.878,2.598-1.829
		c0.586-0.928,0.879-2.317,0.879-4.171v-34.355h11.671v35.489c0,2.731-0.244,5.098-0.731,7.099
		c-0.537,1.999-1.391,3.622-2.562,4.865c-1.22,1.342-2.866,2.317-4.938,2.928c-2.074,0.658-4.721,0.987-7.939,0.987L692.143,178.582
		z M711.424,130.287c-0.536,0.902-1.269,1.635-2.195,2.195c-0.927,0.562-1.952,0.842-3.073,0.842c-1.122,0-2.135-0.269-3.037-0.806
		c-0.927-0.561-1.658-1.304-2.195-2.231c-0.561-0.976-0.841-2.013-0.841-3.109c0-1.122,0.269-2.146,0.805-3.074
		c0.585-0.951,1.329-1.694,2.231-2.231c0.902-0.536,1.915-0.805,3.037-0.805c1.121,0,2.146,0.269,3.073,0.805
		c0.902,0.537,1.634,1.28,2.195,2.231c0.536,0.928,0.805,1.952,0.805,3.074C712.229,128.348,711.96,129.385,711.424,130.287z"/>
	<path fill="#FFFFFF" d="M747.425,174.118c-0.78,0.342-1.354,0.573-1.719,0.695c-2.586,1-5.293,1.5-8.123,1.5
		c-3.731,0-7.256-0.866-10.573-2.598c-3.317-1.756-5.952-4.146-7.903-7.171c-1.975-3.073-2.963-6.5-2.963-10.281
		c0-2.854,0.572-5.512,1.72-7.976c1.146-2.438,2.72-4.561,4.72-6.366c1.976-1.805,4.268-3.184,6.878-4.135
		c2.61-0.999,5.317-1.5,8.122-1.5c2.781,0,5.488,0.488,8.123,1.464c2.634,0.976,4.926,2.366,6.878,4.171
		c2.049,1.854,3.634,3.976,4.757,6.366c1.146,2.464,1.719,5.122,1.719,7.976l-0.036,19.062l-11.599-0.109V174.118z M729.169,151.544
		c-0.903,1.439-1.354,3.013-1.354,4.72c0,2.586,0.975,4.817,2.926,6.695c1.928,1.854,4.208,2.781,6.842,2.781
		c2.658,0,4.951-0.927,6.879-2.781c1.951-1.878,2.927-4.109,2.927-6.695c0-1.707-0.452-3.28-1.354-4.72
		c-0.903-1.438-2.11-2.585-3.622-3.439c-1.488-0.828-3.098-1.243-4.83-1.243c-1.683,0-3.28,0.415-4.793,1.243
		C731.279,148.959,730.072,150.105,729.169,151.544z"/>
	<path fill="#FFFFFF" d="M774.061,135.116h-9.988l-3.183-11.817h35.16l3.072,11.817h-12.33v40.1h-12.731V135.116z"/>
	<path fill="#FFFFFF" d="M830.917,148.324c1.098,2.464,1.646,5.099,1.646,7.903v0.329c0,0.122-0.014,0.256-0.037,0.402l-0.072,0.622
		h-4.537v0.073h-25.172c0.293,2.049,1.184,3.817,2.67,5.305c1.879,1.854,4.074,2.781,6.586,2.781c2.537,0,4.732-0.927,6.586-2.781
		l0.074-0.073l0.109-0.146l0.109-0.109l0.072-0.109l6.293,9c-1.805,1.464-3.635,2.573-5.486,3.329
		c-2.488,0.976-5.074,1.464-7.758,1.464c-3.635,0-7.012-0.866-10.135-2.598c-3.195-1.756-5.719-4.158-7.572-7.208
		c-1.903-3.049-2.854-6.476-2.854-10.28c0-2.854,0.549-5.488,1.647-7.903c1.098-2.438,2.609-4.561,4.535-6.366
		c1.951-1.853,4.146-3.256,6.586-4.207c2.512-0.976,5.109-1.464,7.793-1.464s5.27,0.488,7.758,1.464
		c2.463,0.951,4.67,2.342,6.621,4.171C828.308,143.702,829.82,145.837,830.917,148.324z M812.001,146.861
		c-1.635,0-3.17,0.415-4.609,1.243c-0.879,0.537-1.732,1.294-2.561,2.269h14.342c-0.83-0.975-1.684-1.731-2.561-2.269
		C815.173,147.276,813.636,146.861,812.001,146.861z"/>
	<path fill="#FFFFFF" d="M853.601,147.52c-0.609-0.414-1.402-0.646-2.379-0.695h-0.658c-2.977,0.122-4.463,2.195-4.463,6.22v22.172
		h-11.709v-22.172c0-10.658,5.391-16.256,16.172-16.793h0.658c0.805,0.024,1.598,0.098,2.379,0.22V147.52z"/>
	<path fill="#FFFFFF" d="M888.578,152.203v23.049h-11.744v-23.049c-0.195-3.439-1.67-5.208-4.428-5.306h-0.658
		c-2.975,0.098-4.463,2.159-4.463,6.184v22.171h-11.707v-22.171c0-10.61,5.389-16.208,16.17-16.794h0.658
		c4.293,0.244,7.732,1.269,10.318,3.073c2.561-1.805,5.988-2.829,10.281-3.073h0.658c10.781,0.586,16.172,6.184,16.172,16.794
		v22.171h-11.709v-22.171c0-4.024-1.486-6.086-4.463-6.184h-0.658C890.248,146.995,888.773,148.764,888.578,152.203z"/>
</g>
<g>
	<path fill="#FFFFFF" d="M67.243,329.171l-33.038-26.525l0.036,26.38H21.437v-52.539l33.074,24.696v-23.965l12.732,0.073V329.171z"
		/>
	<path fill="#FFFFFF" d="M80.414,284.206c-0.536,0.902-1.269,1.635-2.195,2.195c-0.927,0.562-1.952,0.842-3.073,0.842
		c-1.122,0-2.135-0.269-3.037-0.806c-0.927-0.561-1.658-1.304-2.195-2.231c-0.561-0.976-0.841-2.013-0.841-3.109
		c0-1.122,0.269-2.146,0.805-3.074c0.585-0.951,1.329-1.694,2.231-2.231c0.902-0.536,1.915-0.805,3.037-0.805
		c1.121,0,2.146,0.269,3.073,0.805c0.902,0.537,1.634,1.28,2.195,2.231c0.536,0.928,0.806,1.952,0.806,3.074
		C81.22,282.267,80.95,283.304,80.414,284.206z M81.183,291.706v37.502H69.511v-37.465L81.183,291.706z"/>
	<path fill="#FFFFFF" d="M99.22,300.78c-2.977,0.122-4.463,2.195-4.463,6.22v22.135H83.048V307c0-10.659,5.391-16.257,16.172-16.794
		h0.658c10.781,0.537,16.172,6.135,16.172,16.794v22.135h-11.708V307c0-4.024-1.487-6.098-4.464-6.22H99.22z"/>
	<path fill="#FFFFFF" d="M117.879,332.501c1.999,0,3.562-0.146,4.683-0.439c1.146-0.269,2.013-0.878,2.598-1.829
		c0.586-0.928,0.879-2.317,0.879-4.171v-34.355h11.671v35.489c0,2.731-0.244,5.098-0.731,7.099
		c-0.537,1.999-1.391,3.622-2.562,4.865c-1.22,1.342-2.866,2.317-4.938,2.928c-2.074,0.658-4.721,0.987-7.939,0.987L117.879,332.501
		z M137.16,284.206c-0.536,0.902-1.269,1.635-2.195,2.195c-0.927,0.562-1.952,0.842-3.073,0.842c-1.122,0-2.135-0.269-3.037-0.806
		c-0.927-0.561-1.658-1.304-2.195-2.231c-0.561-0.976-0.841-2.013-0.841-3.109c0-1.122,0.269-2.146,0.805-3.074
		c0.585-0.951,1.329-1.694,2.231-2.231c0.902-0.536,1.915-0.805,3.037-0.805c1.121,0,2.146,0.269,3.073,0.805
		c0.902,0.537,1.634,1.28,2.195,2.231c0.536,0.928,0.805,1.952,0.805,3.074C137.965,282.267,137.696,283.304,137.16,284.206z"/>
	<path fill="#FFFFFF" d="M173.161,328.037c-0.78,0.342-1.354,0.573-1.719,0.695c-2.586,1-5.293,1.5-8.123,1.5
		c-3.731,0-7.256-0.866-10.573-2.598c-3.317-1.756-5.952-4.146-7.903-7.171c-1.975-3.073-2.963-6.5-2.963-10.281
		c0-2.854,0.572-5.512,1.72-7.976c1.146-2.438,2.72-4.561,4.72-6.366c1.976-1.805,4.268-3.184,6.878-4.135
		c2.61-0.999,5.317-1.5,8.122-1.5c2.781,0,5.488,0.488,8.123,1.464c2.634,0.976,4.926,2.366,6.878,4.171
		c2.049,1.854,3.634,3.976,4.757,6.366c1.146,2.464,1.719,5.122,1.719,7.976l-0.036,19.062l-11.599-0.109V328.037z M154.905,305.463
		c-0.903,1.439-1.354,3.013-1.354,4.72c0,2.586,0.975,4.817,2.926,6.695c1.928,1.854,4.208,2.781,6.842,2.781
		c2.658,0,4.951-0.927,6.879-2.781c1.951-1.878,2.927-4.109,2.927-6.695c0-1.707-0.452-3.28-1.354-4.72
		c-0.903-1.438-2.11-2.585-3.622-3.439c-1.488-0.828-3.098-1.243-4.83-1.243c-1.683,0-3.28,0.415-4.793,1.243
		C157.015,302.878,155.808,304.024,154.905,305.463z"/>
	<path fill="#FFFFFF" d="M199.797,289.035h-9.988l-3.183-11.817h35.16l3.072,11.817h-12.33v40.1h-12.731V289.035z"/>
	<path fill="#FFFFFF" d="M256.653,302.243c1.098,2.464,1.646,5.099,1.646,7.903v0.329c0,0.122-0.014,0.256-0.037,0.402l-0.072,0.622
		h-4.537v0.073h-25.172c0.293,2.049,1.184,3.817,2.67,5.305c1.879,1.854,4.074,2.781,6.586,2.781c2.537,0,4.732-0.927,6.586-2.781
		l0.074-0.073l0.109-0.146l0.109-0.109l0.072-0.109l6.293,9c-1.805,1.464-3.635,2.573-5.486,3.329
		c-2.488,0.976-5.074,1.464-7.758,1.464c-3.635,0-7.012-0.866-10.135-2.598c-3.195-1.756-5.719-4.158-7.572-7.208
		c-1.903-3.049-2.854-6.476-2.854-10.28c0-2.854,0.549-5.488,1.647-7.903c1.098-2.438,2.609-4.561,4.535-6.366
		c1.951-1.853,4.146-3.256,6.586-4.207c2.512-0.976,5.109-1.464,7.793-1.464s5.27,0.488,7.758,1.464
		c2.463,0.951,4.67,2.342,6.621,4.171C254.044,297.621,255.556,299.756,256.653,302.243z M237.737,300.78
		c-1.635,0-3.17,0.415-4.609,1.243c-0.879,0.537-1.732,1.294-2.561,2.269h14.342c-0.83-0.975-1.684-1.731-2.561-2.269
		C240.909,301.195,239.372,300.78,237.737,300.78z"/>
	<path fill="#FFFFFF" d="M279.337,301.438c-0.609-0.414-1.402-0.646-2.379-0.695H276.3c-2.977,0.122-4.463,2.195-4.463,6.22v22.172
		h-11.709v-22.172c0-10.658,5.391-16.256,16.172-16.793h0.658c0.805,0.024,1.598,0.098,2.379,0.22V301.438z"/>
	<path fill="#FFFFFF" d="M314.313,306.122v23.049h-11.744v-23.049c-0.195-3.439-1.67-5.208-4.428-5.306h-0.658
		c-2.975,0.098-4.463,2.159-4.463,6.184v22.171h-11.707V307c0-10.61,5.389-16.208,16.17-16.794h0.658
		c4.293,0.244,7.732,1.269,10.318,3.073c2.561-1.805,5.988-2.829,10.281-3.073h0.658c10.781,0.586,16.172,6.184,16.172,16.794
		v22.171h-11.709V307c0-4.024-1.486-6.086-4.463-6.184h-0.658C315.983,300.914,314.509,302.683,314.313,306.122z"/>
</g>
<rect y="367.088" width="937.454" height="367.088"/>
<path fill="#FFFFFF" d="M234.508,569.139c-18.435,0-34.973,2.048-46.299,5.294c-4.234,1.214-7.746,2.594-10.348,4.099
	c-0.104,0.953-0.182,1.914-0.241,2.881c-0.069,1.127-0.111,2.262-0.111,3.406c0,1.047,0.032,2.086,0.09,3.119
	c0.06,1.063,0.148,2.121,0.263,3.169c2.069,1.196,4.709,2.313,7.833,3.332c11.312,3.687,28.967,6.06,48.814,6.06
	c18.28,0,34.698-2.013,46.016-5.211V574.35C269.207,571.151,252.789,569.139,234.508,569.139z M206.338,592.076l-0.002-14.516
	l10.506,7.258l10.504,7.258H206.338z M262.68,592.076h-21.008l10.504-7.258l10.506-7.258L262.68,592.076z"/>
<path fill="#FFFFFF" d="M268.524,420.179H88.484c-6.627,0-12,5.373-12,12v180.04c0,6.628,5.373,12,12,12h104.859
	c-6.729-7.03-11.679-15.773-14.117-25.519c-5.669,2.882-12.619,4.585-20.136,4.585c-13.156,0-24.591-5.199-30.423-12.848
	c5.832-7.647,17.267-12.847,30.423-12.847c0.294,0,0.583,0.017,0.875,0.021c-0.008-0.008-0.016-0.014-0.023-0.021
	c-8.765-8.765-12.624-20.144-10.979-29.56c9.417-1.646,20.796,2.213,29.561,10.978c1.232,1.231,2.355,2.519,3.391,3.84
	c8.601-20.571,28.901-35.03,52.593-35.03c18.907,0,35.648,9.214,46.016,23.388V432.179
	C280.524,425.552,275.151,420.179,268.524,420.179z M108.993,497.582c-0.348,0.332-1.043,0.332-1.389,0l-8.342-5.81l29.081-20.825
	c0.463-0.254,0.463-0.751,0-1.166l-29.081-20.83l8.342-5.805c0.346-0.252,1.041-0.252,1.389,0l37.307,26.635
	c0.347,0.415,0.347,0.912,0,1.166L108.993,497.582z M197.792,497.83H146.56V486h51.232V497.83z"/>
<path fill="#FFFFFF" d="M520.971,569.139c-18.435,0-34.973,2.048-46.299,5.294c-4.234,1.214-7.746,2.594-10.349,4.099
	c-0.104,0.953-0.182,1.914-0.24,2.881c-0.069,1.127-0.111,2.262-0.111,3.406c0,1.047,0.031,2.086,0.09,3.119
	c0.06,1.063,0.147,2.121,0.262,3.169c2.069,1.196,4.71,2.313,7.833,3.332c11.312,3.687,28.967,6.06,48.814,6.06
	c18.28,0,34.698-2.013,46.016-5.211V574.35C555.669,571.151,539.251,569.139,520.971,569.139z M492.801,592.076l-0.002-14.516
	l10.506,7.258l10.504,7.258H492.801z M549.143,592.076h-21.008l10.504-7.258l10.506-7.258L549.143,592.076z"/>
<path fill="#FFFFFF" d="M554.987,420.179h-180.04c-6.627,0-12,5.373-12,12v180.04c0,6.628,5.373,12,12,12h104.859
	c-6.729-7.03-11.679-15.773-14.117-25.519c-5.67,2.882-12.619,4.585-20.136,4.585c-13.156,0-24.591-5.199-30.423-12.848
	c5.832-7.647,17.267-12.847,30.423-12.847c0.294,0,0.583,0.017,0.875,0.021c-0.008-0.008-0.016-0.014-0.023-0.021
	c-8.765-8.765-12.624-20.144-10.979-29.56c9.417-1.646,20.796,2.213,29.561,10.978c1.231,1.231,2.354,2.519,3.391,3.84
	c8.601-20.571,28.901-35.03,52.593-35.03c18.907,0,35.648,9.214,46.016,23.388V432.179
	C566.987,425.552,561.614,420.179,554.987,420.179z M395.456,497.582c-0.348,0.332-1.043,0.332-1.389,0l-8.342-5.81l29.081-20.825
	c0.463-0.254,0.463-0.751,0-1.166l-29.081-20.83l8.342-5.805c0.346-0.252,1.041-0.252,1.389,0l37.307,26.635
	c0.347,0.415,0.347,0.912,0,1.166L395.456,497.582z M484.255,497.83h-51.232V486h51.232V497.83z"/>
<g>
	<path fill="#FFFFFF" d="M641.507,542.34l-33.038-26.525l0.036,26.379h-12.805v-52.539l33.074,24.697v-23.965l12.732,0.072V542.34z"
		/>
	<path fill="#FFFFFF" d="M654.678,497.375c-0.536,0.902-1.269,1.635-2.195,2.195s-1.952,0.842-3.073,0.842
		c-1.122,0-2.135-0.27-3.037-0.807c-0.927-0.561-1.658-1.303-2.195-2.23c-0.561-0.977-0.841-2.014-0.841-3.109
		c0-1.123,0.269-2.146,0.805-3.074c0.585-0.951,1.329-1.695,2.231-2.232c0.902-0.535,1.915-0.805,3.037-0.805
		c1.121,0,2.146,0.27,3.073,0.805c0.902,0.537,1.634,1.281,2.195,2.232c0.536,0.928,0.806,1.951,0.806,3.074
		C655.484,495.436,655.214,496.473,654.678,497.375z M655.447,504.875v37.502h-11.672v-37.465L655.447,504.875z"/>
	<path fill="#FFFFFF" d="M673.484,513.949c-2.977,0.121-4.463,2.195-4.463,6.219v22.135h-11.709v-22.135
		c0-10.658,5.391-16.256,16.172-16.793h0.658c10.781,0.537,16.172,6.135,16.172,16.793v22.135h-11.708v-22.135
		c0-4.023-1.487-6.098-4.464-6.219H673.484z"/>
	<path fill="#FFFFFF" d="M692.143,545.67c1.999,0,3.562-0.146,4.683-0.439c1.146-0.27,2.013-0.879,2.598-1.83
		c0.586-0.928,0.879-2.316,0.879-4.17v-34.355h11.671v35.488c0,2.732-0.244,5.098-0.731,7.1c-0.537,1.998-1.391,3.621-2.562,4.865
		c-1.22,1.342-2.866,2.316-4.938,2.928c-2.074,0.658-4.721,0.986-7.939,0.986L692.143,545.67z M711.424,497.375
		c-0.536,0.902-1.269,1.635-2.195,2.195s-1.952,0.842-3.073,0.842c-1.122,0-2.135-0.27-3.037-0.807
		c-0.927-0.561-1.658-1.303-2.195-2.23c-0.561-0.977-0.841-2.014-0.841-3.109c0-1.123,0.269-2.146,0.805-3.074
		c0.585-0.951,1.329-1.695,2.231-2.232c0.902-0.535,1.915-0.805,3.037-0.805c1.121,0,2.146,0.27,3.073,0.805
		c0.902,0.537,1.634,1.281,2.195,2.232c0.536,0.928,0.805,1.951,0.805,3.074C712.229,495.436,711.96,496.473,711.424,497.375z"/>
	<path fill="#FFFFFF" d="M747.425,541.205c-0.78,0.342-1.354,0.574-1.719,0.695c-2.586,1-5.293,1.5-8.123,1.5
		c-3.731,0-7.256-0.865-10.573-2.598c-3.317-1.756-5.952-4.146-7.903-7.17c-1.975-3.074-2.963-6.5-2.963-10.281
		c0-2.854,0.572-5.512,1.72-7.977c1.146-2.438,2.72-4.561,4.72-6.365c1.976-1.805,4.268-3.184,6.878-4.135
		c2.61-1,5.317-1.5,8.122-1.5c2.781,0,5.488,0.488,8.123,1.463c2.634,0.977,4.926,2.367,6.878,4.172
		c2.049,1.854,3.634,3.975,4.757,6.365c1.146,2.465,1.719,5.123,1.719,7.977l-0.036,19.061l-11.599-0.109V541.205z M729.169,518.631
		c-0.903,1.439-1.354,3.014-1.354,4.721c0,2.586,0.975,4.816,2.926,6.695c1.928,1.854,4.208,2.781,6.842,2.781
		c2.658,0,4.951-0.928,6.879-2.781c1.951-1.879,2.927-4.109,2.927-6.695c0-1.707-0.452-3.281-1.354-4.721
		c-0.903-1.438-2.11-2.584-3.622-3.439c-1.488-0.828-3.098-1.242-4.83-1.242c-1.683,0-3.28,0.414-4.793,1.242
		C731.279,516.047,730.072,517.193,729.169,518.631z"/>
	<path fill="#FFFFFF" d="M774.061,502.203h-9.988l-3.183-11.816h35.16l3.072,11.816h-12.33v40.1h-12.731V502.203z"/>
	<path fill="#FFFFFF" d="M830.917,515.412c1.098,2.463,1.646,5.098,1.646,7.902v0.33c0,0.121-0.014,0.256-0.037,0.402l-0.072,0.621
		h-4.537v0.074h-25.172c0.293,2.049,1.184,3.816,2.67,5.305c1.879,1.854,4.074,2.781,6.586,2.781c2.537,0,4.732-0.928,6.586-2.781
		l0.074-0.074l0.109-0.146l0.109-0.109l0.072-0.109l6.293,9c-1.805,1.465-3.635,2.574-5.486,3.33
		c-2.488,0.975-5.074,1.463-7.758,1.463c-3.635,0-7.012-0.865-10.135-2.598c-3.195-1.756-5.719-4.158-7.572-7.207
		c-1.903-3.049-2.854-6.477-2.854-10.281c0-2.854,0.549-5.488,1.647-7.902c1.098-2.439,2.609-4.561,4.535-6.367
		c1.951-1.852,4.146-3.256,6.586-4.207c2.512-0.975,5.109-1.463,7.793-1.463s5.27,0.488,7.758,1.463
		c2.463,0.951,4.67,2.342,6.621,4.172C828.308,510.789,829.82,512.924,830.917,515.412z M812.001,513.949
		c-1.635,0-3.17,0.414-4.609,1.242c-0.879,0.537-1.732,1.295-2.561,2.27h14.342c-0.83-0.975-1.684-1.732-2.561-2.27
		C815.173,514.363,813.636,513.949,812.001,513.949z"/>
	<path fill="#FFFFFF" d="M853.601,514.607c-0.609-0.414-1.402-0.646-2.379-0.695h-0.658c-2.977,0.121-4.463,2.195-4.463,6.219
		v22.172h-11.709v-22.172c0-10.658,5.391-16.256,16.172-16.793h0.658c0.805,0.025,1.598,0.098,2.379,0.221V514.607z"/>
	<path fill="#FFFFFF" d="M888.578,519.291v23.049h-11.744v-23.049c-0.195-3.439-1.67-5.209-4.428-5.307h-0.658
		c-2.975,0.098-4.463,2.16-4.463,6.184v22.172h-11.707v-22.172c0-10.609,5.389-16.207,16.17-16.793h0.658
		c4.293,0.244,7.732,1.268,10.318,3.072c2.561-1.805,5.988-2.828,10.281-3.072h0.658c10.781,0.586,16.172,6.184,16.172,16.793
		v22.172h-11.709v-22.172c0-4.023-1.486-6.086-4.463-6.184h-0.658C890.248,514.082,888.773,515.852,888.578,519.291z"/>
</g>
<g>
	<path fill="#FFFFFF" d="M67.243,696.258l-33.038-26.525l0.036,26.381H21.437v-52.539l33.074,24.695v-23.965l12.732,0.074V696.258z"
		/>
	<path fill="#FFFFFF" d="M80.414,651.293c-0.536,0.902-1.269,1.635-2.195,2.195c-0.927,0.563-1.952,0.842-3.073,0.842
		c-1.122,0-2.135-0.268-3.037-0.805c-0.927-0.561-1.658-1.305-2.195-2.232c-0.561-0.975-0.841-2.012-0.841-3.109
		c0-1.121,0.269-2.146,0.805-3.074c0.585-0.951,1.329-1.693,2.231-2.23s1.915-0.805,3.037-0.805c1.121,0,2.146,0.268,3.073,0.805
		c0.902,0.537,1.634,1.279,2.195,2.23c0.536,0.928,0.806,1.953,0.806,3.074C81.22,649.354,80.95,650.391,80.414,651.293z
		 M81.183,658.793v37.502H69.511V658.83L81.183,658.793z"/>
	<path fill="#FFFFFF" d="M99.22,667.867c-2.977,0.123-4.463,2.195-4.463,6.221v22.135H83.048v-22.135
		c0-10.66,5.391-16.258,16.172-16.795h0.658c10.781,0.537,16.172,6.135,16.172,16.795v22.135h-11.708v-22.135
		c0-4.025-1.487-6.098-4.464-6.221H99.22z"/>
	<path fill="#FFFFFF" d="M117.879,699.588c1.999,0,3.562-0.146,4.683-0.439c1.146-0.268,2.013-0.877,2.598-1.828
		c0.586-0.928,0.879-2.318,0.879-4.172v-34.355h11.671v35.49c0,2.73-0.244,5.098-0.731,7.098c-0.537,2-1.391,3.623-2.562,4.865
		c-1.22,1.342-2.866,2.318-4.938,2.928c-2.074,0.658-4.721,0.988-7.939,0.988L117.879,699.588z M137.16,651.293
		c-0.536,0.902-1.269,1.635-2.195,2.195c-0.927,0.563-1.952,0.842-3.073,0.842c-1.122,0-2.135-0.268-3.037-0.805
		c-0.927-0.561-1.658-1.305-2.195-2.232c-0.561-0.975-0.841-2.012-0.841-3.109c0-1.121,0.269-2.146,0.805-3.074
		c0.585-0.951,1.329-1.693,2.231-2.23s1.915-0.805,3.037-0.805c1.121,0,2.146,0.268,3.073,0.805c0.902,0.537,1.634,1.279,2.195,2.23
		c0.536,0.928,0.805,1.953,0.805,3.074C137.965,649.354,137.696,650.391,137.16,651.293z"/>
	<path fill="#FFFFFF" d="M173.161,695.125c-0.78,0.342-1.354,0.572-1.719,0.695c-2.586,1-5.293,1.5-8.123,1.5
		c-3.731,0-7.256-0.867-10.573-2.598c-3.317-1.756-5.952-4.146-7.903-7.172c-1.975-3.072-2.963-6.5-2.963-10.281
		c0-2.854,0.572-5.512,1.72-7.975c1.146-2.439,2.72-4.561,4.72-6.367c1.976-1.805,4.268-3.184,6.878-4.135
		c2.61-0.998,5.317-1.5,8.122-1.5c2.781,0,5.488,0.488,8.123,1.465c2.634,0.975,4.926,2.365,6.878,4.17
		c2.049,1.854,3.634,3.977,4.757,6.367c1.146,2.463,1.719,5.121,1.719,7.975l-0.036,19.063l-11.599-0.109V695.125z M154.905,672.551
		c-0.903,1.439-1.354,3.012-1.354,4.719c0,2.586,0.975,4.818,2.926,6.695c1.928,1.855,4.208,2.781,6.842,2.781
		c2.658,0,4.951-0.926,6.879-2.781c1.951-1.877,2.927-4.109,2.927-6.695c0-1.707-0.452-3.279-1.354-4.719
		c-0.903-1.439-2.11-2.586-3.622-3.439c-1.488-0.828-3.098-1.244-4.83-1.244c-1.683,0-3.28,0.416-4.793,1.244
		C157.015,669.965,155.808,671.111,154.905,672.551z"/>
	<path fill="#FFFFFF" d="M199.797,656.123h-9.988l-3.183-11.818h35.16l3.072,11.818h-12.33v40.1h-12.731V656.123z"/>
	<path fill="#FFFFFF" d="M256.653,669.33c1.098,2.465,1.646,5.1,1.646,7.904v0.328c0,0.123-0.014,0.256-0.037,0.402l-0.072,0.623
		h-4.537v0.072h-25.172c0.293,2.049,1.184,3.818,2.67,5.305c1.879,1.855,4.074,2.781,6.586,2.781c2.537,0,4.732-0.926,6.586-2.781
		l0.074-0.072l0.109-0.146l0.109-0.109l0.072-0.109l6.293,9c-1.805,1.463-3.635,2.572-5.486,3.328
		c-2.488,0.977-5.074,1.465-7.758,1.465c-3.635,0-7.012-0.867-10.135-2.598c-3.195-1.756-5.719-4.158-7.572-7.209
		c-1.903-3.049-2.854-6.475-2.854-10.279c0-2.855,0.549-5.488,1.647-7.904c1.098-2.438,2.609-4.561,4.535-6.365
		c1.951-1.854,4.146-3.256,6.586-4.207c2.512-0.977,5.109-1.465,7.793-1.465s5.27,0.488,7.758,1.465
		c2.463,0.951,4.67,2.342,6.621,4.17C254.044,664.709,255.556,666.844,256.653,669.33z M237.737,667.867
		c-1.635,0-3.17,0.416-4.609,1.244c-0.879,0.537-1.732,1.293-2.561,2.268h14.342c-0.83-0.975-1.684-1.73-2.561-2.268
		C240.909,668.283,239.372,667.867,237.737,667.867z"/>
	<path fill="#FFFFFF" d="M279.337,668.525c-0.609-0.414-1.402-0.645-2.379-0.695H276.3c-2.977,0.123-4.463,2.195-4.463,6.221v22.172
		h-11.709v-22.172c0-10.658,5.391-16.256,16.172-16.793h0.658c0.805,0.023,1.598,0.098,2.379,0.219V668.525z"/>
	<path fill="#FFFFFF" d="M314.313,673.209v23.049h-11.744v-23.049c-0.195-3.439-1.67-5.207-4.428-5.305h-0.658
		c-2.975,0.098-4.463,2.158-4.463,6.184v22.17h-11.707v-22.17c0-10.611,5.389-16.209,16.17-16.795h0.658
		c4.293,0.244,7.732,1.27,10.318,3.074c2.561-1.805,5.988-2.83,10.281-3.074h0.658c10.781,0.586,16.172,6.184,16.172,16.795v22.17
		h-11.709v-22.17c0-4.025-1.486-6.086-4.463-6.184h-0.658C315.983,668.002,314.509,669.77,314.313,673.209z"/>
</g>
<path d="M234.508,936.227c-18.435,0-34.973,2.048-46.299,5.294c-4.234,1.214-7.746,2.594-10.348,4.099
	c-0.104,0.953-0.182,1.914-0.241,2.881c-0.069,1.127-0.111,2.262-0.111,3.406c0,1.047,0.032,2.086,0.09,3.119
	c0.06,1.063,0.148,2.121,0.263,3.169c2.069,1.196,4.709,2.313,7.833,3.332c11.312,3.687,28.967,6.06,48.814,6.06
	c18.28,0,34.698-2.013,46.016-5.211v-20.938C269.207,938.239,252.789,936.227,234.508,936.227z M206.338,959.164l-0.002-14.516
	l10.506,7.258l10.504,7.258H206.338z M262.68,959.164h-21.008l10.504-7.258l10.506-7.258L262.68,959.164z"/>
<path d="M268.524,787.267H88.484c-6.627,0-12,5.373-12,12v180.04c0,6.628,5.373,12,12,12h104.859
	c-6.729-7.03-11.679-15.773-14.117-25.519c-5.669,2.882-12.619,4.585-20.136,4.585c-13.156,0-24.591-5.199-30.423-12.848
	c5.832-7.647,17.267-12.847,30.423-12.847c0.294,0,0.583,0.017,0.875,0.021c-0.008-0.008-0.016-0.014-0.023-0.021
	c-8.765-8.765-12.624-20.144-10.979-29.56c9.417-1.646,20.796,2.213,29.561,10.978c1.232,1.231,2.355,2.519,3.391,3.84
	c8.601-20.571,28.901-35.03,52.593-35.03c18.907,0,35.648,9.214,46.016,23.388V799.267
	C280.524,792.64,275.151,787.267,268.524,787.267z M108.993,864.67c-0.348,0.332-1.043,0.332-1.389,0l-8.342-5.81l29.081-20.825
	c0.463-0.254,0.463-0.751,0-1.166l-29.081-20.83l8.342-5.805c0.346-0.252,1.041-0.252,1.389,0l37.307,26.635
	c0.347,0.415,0.347,0.912,0,1.166L108.993,864.67z M197.792,864.918H146.56v-11.83h51.232V864.918z"/>
<path d="M520.971,936.227c-18.435,0-34.973,2.048-46.299,5.294c-4.234,1.214-7.746,2.594-10.349,4.099
	c-0.104,0.953-0.182,1.914-0.24,2.881c-0.069,1.127-0.111,2.262-0.111,3.406c0,1.047,0.031,2.086,0.09,3.119
	c0.06,1.063,0.147,2.121,0.262,3.169c2.069,1.196,4.71,2.313,7.833,3.332c11.312,3.687,28.967,6.06,48.814,6.06
	c18.28,0,34.698-2.013,46.016-5.211v-20.938C555.669,938.239,539.251,936.227,520.971,936.227z M492.801,959.164l-0.002-14.516
	l10.506,7.258l10.504,7.258H492.801z M549.143,959.164h-21.008l10.504-7.258l10.506-7.258L549.143,959.164z"/>
<path d="M554.987,787.267h-180.04c-6.627,0-12,5.373-12,12v180.04c0,6.628,5.373,12,12,12h104.859
	c-6.729-7.03-11.679-15.773-14.117-25.519c-5.67,2.882-12.619,4.585-20.136,4.585c-13.156,0-24.591-5.199-30.423-12.848
	c5.832-7.647,17.267-12.847,30.423-12.847c0.294,0,0.583,0.017,0.875,0.021c-0.008-0.008-0.016-0.014-0.023-0.021
	c-8.765-8.765-12.624-20.144-10.979-29.56c9.417-1.646,20.796,2.213,29.561,10.978c1.231,1.231,2.354,2.519,3.391,3.84
	c8.601-20.571,28.901-35.03,52.593-35.03c18.907,0,35.648,9.214,46.016,23.388V799.267
	C566.987,792.64,561.614,787.267,554.987,787.267z M395.456,864.67c-0.348,0.332-1.043,0.332-1.389,0l-8.342-5.81l29.081-20.825
	c0.463-0.254,0.463-0.751,0-1.166l-29.081-20.83l8.342-5.805c0.346-0.252,1.041-0.252,1.389,0l37.307,26.635
	c0.347,0.415,0.347,0.912,0,1.166L395.456,864.67z M484.255,864.918h-51.232v-11.83h51.232V864.918z"/>
<g>
	<path d="M641.507,909.428l-33.038-26.525l0.036,26.379h-12.805v-52.539l33.074,24.697v-23.965l12.732,0.072V909.428z"/>
	<path d="M654.678,864.463c-0.536,0.902-1.269,1.635-2.195,2.195s-1.952,0.842-3.073,0.842c-1.122,0-2.135-0.27-3.037-0.807
		c-0.927-0.561-1.658-1.303-2.195-2.23c-0.561-0.977-0.841-2.014-0.841-3.109c0-1.123,0.269-2.146,0.805-3.074
		c0.585-0.951,1.329-1.695,2.231-2.232c0.902-0.535,1.915-0.805,3.037-0.805c1.121,0,2.146,0.27,3.073,0.805
		c0.902,0.537,1.634,1.281,2.195,2.232c0.536,0.928,0.806,1.951,0.806,3.074C655.484,862.523,655.214,863.561,654.678,864.463z
		 M655.447,871.963v37.502h-11.672V872L655.447,871.963z"/>
	<path d="M673.484,881.037c-2.977,0.121-4.463,2.195-4.463,6.219v22.135h-11.709v-22.135c0-10.658,5.391-16.256,16.172-16.793h0.658
		c10.781,0.537,16.172,6.135,16.172,16.793v22.135h-11.708v-22.135c0-4.023-1.487-6.098-4.464-6.219H673.484z"/>
	<path d="M692.143,912.758c1.999,0,3.562-0.146,4.683-0.439c1.146-0.27,2.013-0.879,2.598-1.83c0.586-0.928,0.879-2.316,0.879-4.17
		v-34.355h11.671v35.488c0,2.732-0.244,5.098-0.731,7.1c-0.537,1.998-1.391,3.621-2.562,4.865c-1.22,1.342-2.866,2.316-4.938,2.928
		c-2.074,0.658-4.721,0.986-7.939,0.986L692.143,912.758z M711.424,864.463c-0.536,0.902-1.269,1.635-2.195,2.195
		s-1.952,0.842-3.073,0.842c-1.122,0-2.135-0.27-3.037-0.807c-0.927-0.561-1.658-1.303-2.195-2.23
		c-0.561-0.977-0.841-2.014-0.841-3.109c0-1.123,0.269-2.146,0.805-3.074c0.585-0.951,1.329-1.695,2.231-2.232
		c0.902-0.535,1.915-0.805,3.037-0.805c1.121,0,2.146,0.27,3.073,0.805c0.902,0.537,1.634,1.281,2.195,2.232
		c0.536,0.928,0.805,1.951,0.805,3.074C712.229,862.523,711.96,863.561,711.424,864.463z"/>
	<path d="M747.425,908.293c-0.78,0.342-1.354,0.574-1.719,0.695c-2.586,1-5.293,1.5-8.123,1.5c-3.731,0-7.256-0.865-10.573-2.598
		c-3.317-1.756-5.952-4.146-7.903-7.17c-1.975-3.074-2.963-6.5-2.963-10.281c0-2.854,0.572-5.512,1.72-7.977
		c1.146-2.438,2.72-4.561,4.72-6.365c1.976-1.805,4.268-3.184,6.878-4.135c2.61-1,5.317-1.5,8.122-1.5
		c2.781,0,5.488,0.488,8.123,1.463c2.634,0.977,4.926,2.367,6.878,4.172c2.049,1.854,3.634,3.975,4.757,6.365
		c1.146,2.465,1.719,5.123,1.719,7.977l-0.036,19.061l-11.599-0.109V908.293z M729.169,885.719
		c-0.903,1.439-1.354,3.014-1.354,4.721c0,2.586,0.975,4.816,2.926,6.695c1.928,1.854,4.208,2.781,6.842,2.781
		c2.658,0,4.951-0.928,6.879-2.781c1.951-1.879,2.927-4.109,2.927-6.695c0-1.707-0.452-3.281-1.354-4.721
		c-0.903-1.438-2.11-2.584-3.622-3.439c-1.488-0.828-3.098-1.242-4.83-1.242c-1.683,0-3.28,0.414-4.793,1.242
		C731.279,883.135,730.072,884.281,729.169,885.719z"/>
	<path d="M774.061,869.291h-9.988l-3.183-11.816h35.16l3.072,11.816h-12.33v40.1h-12.731V869.291z"/>
	<path d="M830.917,882.5c1.098,2.463,1.646,5.098,1.646,7.902v0.33c0,0.121-0.014,0.256-0.037,0.402l-0.072,0.621h-4.537v0.074
		h-25.172c0.293,2.049,1.184,3.816,2.67,5.305c1.879,1.854,4.074,2.781,6.586,2.781c2.537,0,4.732-0.928,6.586-2.781l0.074-0.074
		l0.109-0.146l0.109-0.109l0.072-0.109l6.293,9c-1.805,1.465-3.635,2.574-5.486,3.33c-2.488,0.975-5.074,1.463-7.758,1.463
		c-3.635,0-7.012-0.865-10.135-2.598c-3.195-1.756-5.719-4.158-7.572-7.207c-1.903-3.049-2.854-6.477-2.854-10.281
		c0-2.854,0.549-5.488,1.647-7.902c1.098-2.439,2.609-4.561,4.535-6.367c1.951-1.852,4.146-3.256,6.586-4.207
		c2.512-0.975,5.109-1.463,7.793-1.463s5.27,0.488,7.758,1.463c2.463,0.951,4.67,2.342,6.621,4.172
		C828.308,877.877,829.82,880.012,830.917,882.5z M812.001,881.037c-1.635,0-3.17,0.414-4.609,1.242
		c-0.879,0.537-1.732,1.295-2.561,2.27h14.342c-0.83-0.975-1.684-1.732-2.561-2.27C815.173,881.451,813.636,881.037,812.001,881.037
		z"/>
	<path d="M853.601,881.695c-0.609-0.414-1.402-0.646-2.379-0.695h-0.658c-2.977,0.121-4.463,2.195-4.463,6.219v22.172h-11.709
		v-22.172c0-10.658,5.391-16.256,16.172-16.793h0.658c0.805,0.025,1.598,0.098,2.379,0.221V881.695z"/>
	<path d="M888.578,886.379v23.049h-11.744v-23.049c-0.195-3.439-1.67-5.209-4.428-5.307h-0.658c-2.975,0.098-4.463,2.16-4.463,6.184
		v22.172h-11.707v-22.172c0-10.609,5.389-16.207,16.17-16.793h0.658c4.293,0.244,7.732,1.268,10.318,3.072
		c2.561-1.805,5.988-2.828,10.281-3.072h0.658c10.781,0.586,16.172,6.184,16.172,16.793v22.172h-11.709v-22.172
		c0-4.023-1.486-6.086-4.463-6.184h-0.658C890.248,881.17,888.773,882.939,888.578,886.379z"/>
</g>
<g>
	<path d="M67.243,1063.346l-33.038-26.525l0.036,26.381H21.437v-52.539l33.074,24.695v-23.965l12.732,0.074V1063.346z"/>
	<path d="M80.414,1018.381c-0.536,0.902-1.269,1.635-2.195,2.195c-0.927,0.563-1.952,0.842-3.073,0.842
		c-1.122,0-2.135-0.268-3.037-0.805c-0.927-0.561-1.658-1.305-2.195-2.232c-0.561-0.975-0.841-2.012-0.841-3.109
		c0-1.121,0.269-2.146,0.805-3.074c0.585-0.951,1.329-1.693,2.231-2.23s1.915-0.805,3.037-0.805c1.121,0,2.146,0.268,3.073,0.805
		c0.902,0.537,1.634,1.279,2.195,2.23c0.536,0.928,0.806,1.953,0.806,3.074C81.22,1016.441,80.95,1017.479,80.414,1018.381z
		 M81.183,1025.881v37.502H69.511v-37.465L81.183,1025.881z"/>
	<path d="M99.22,1034.955c-2.977,0.123-4.463,2.195-4.463,6.221v22.135H83.048v-22.135c0-10.66,5.391-16.258,16.172-16.795h0.658
		c10.781,0.537,16.172,6.135,16.172,16.795v22.135h-11.708v-22.135c0-4.025-1.487-6.098-4.464-6.221H99.22z"/>
	<path d="M117.879,1066.676c1.999,0,3.562-0.146,4.683-0.439c1.146-0.268,2.013-0.877,2.598-1.828
		c0.586-0.928,0.879-2.318,0.879-4.172v-34.355h11.671v35.49c0,2.73-0.244,5.098-0.731,7.098c-0.537,2-1.391,3.623-2.562,4.865
		c-1.22,1.342-2.866,2.318-4.938,2.928c-2.074,0.658-4.721,0.988-7.939,0.988L117.879,1066.676z M137.16,1018.381
		c-0.536,0.902-1.269,1.635-2.195,2.195c-0.927,0.563-1.952,0.842-3.073,0.842c-1.122,0-2.135-0.268-3.037-0.805
		c-0.927-0.561-1.658-1.305-2.195-2.232c-0.561-0.975-0.841-2.012-0.841-3.109c0-1.121,0.269-2.146,0.805-3.074
		c0.585-0.951,1.329-1.693,2.231-2.23s1.915-0.805,3.037-0.805c1.121,0,2.146,0.268,3.073,0.805c0.902,0.537,1.634,1.279,2.195,2.23
		c0.536,0.928,0.805,1.953,0.805,3.074C137.965,1016.441,137.696,1017.479,137.16,1018.381z"/>
	<path d="M173.161,1062.213c-0.78,0.342-1.354,0.572-1.719,0.695c-2.586,1-5.293,1.5-8.123,1.5c-3.731,0-7.256-0.867-10.573-2.598
		c-3.317-1.756-5.952-4.146-7.903-7.172c-1.975-3.072-2.963-6.5-2.963-10.281c0-2.854,0.572-5.512,1.72-7.975
		c1.146-2.439,2.72-4.561,4.72-6.367c1.976-1.805,4.268-3.184,6.878-4.135c2.61-0.998,5.317-1.5,8.122-1.5
		c2.781,0,5.488,0.488,8.123,1.465c2.634,0.975,4.926,2.365,6.878,4.17c2.049,1.854,3.634,3.977,4.757,6.367
		c1.146,2.463,1.719,5.121,1.719,7.975l-0.036,19.063l-11.599-0.109V1062.213z M154.905,1039.639
		c-0.903,1.439-1.354,3.012-1.354,4.719c0,2.586,0.975,4.818,2.926,6.695c1.928,1.855,4.208,2.781,6.842,2.781
		c2.658,0,4.951-0.926,6.879-2.781c1.951-1.877,2.927-4.109,2.927-6.695c0-1.707-0.452-3.279-1.354-4.719
		c-0.903-1.439-2.11-2.586-3.622-3.439c-1.488-0.828-3.098-1.244-4.83-1.244c-1.683,0-3.28,0.416-4.793,1.244
		C157.015,1037.053,155.808,1038.199,154.905,1039.639z"/>
	<path d="M199.797,1023.211h-9.988l-3.183-11.818h35.16l3.072,11.818h-12.33v40.1h-12.731V1023.211z"/>
	<path d="M256.653,1036.418c1.098,2.465,1.646,5.1,1.646,7.904v0.328c0,0.123-0.014,0.256-0.037,0.402l-0.072,0.623h-4.537v0.072
		h-25.172c0.293,2.049,1.184,3.818,2.67,5.305c1.879,1.855,4.074,2.781,6.586,2.781c2.537,0,4.732-0.926,6.586-2.781l0.074-0.072
		l0.109-0.146l0.109-0.109l0.072-0.109l6.293,9c-1.805,1.463-3.635,2.572-5.486,3.328c-2.488,0.977-5.074,1.465-7.758,1.465
		c-3.635,0-7.012-0.867-10.135-2.598c-3.195-1.756-5.719-4.158-7.572-7.209c-1.903-3.049-2.854-6.475-2.854-10.279
		c0-2.855,0.549-5.488,1.647-7.904c1.098-2.438,2.609-4.561,4.535-6.365c1.951-1.854,4.146-3.256,6.586-4.207
		c2.512-0.977,5.109-1.465,7.793-1.465s5.27,0.488,7.758,1.465c2.463,0.951,4.67,2.342,6.621,4.17
		C254.044,1031.797,255.556,1033.932,256.653,1036.418z M237.737,1034.955c-1.635,0-3.17,0.416-4.609,1.244
		c-0.879,0.537-1.732,1.293-2.561,2.268h14.342c-0.83-0.975-1.684-1.73-2.561-2.268
		C240.909,1035.371,239.372,1034.955,237.737,1034.955z"/>
	<path d="M279.337,1035.613c-0.609-0.414-1.402-0.645-2.379-0.695H276.3c-2.977,0.123-4.463,2.195-4.463,6.221v22.172h-11.709
		v-22.172c0-10.658,5.391-16.256,16.172-16.793h0.658c0.805,0.023,1.598,0.098,2.379,0.219V1035.613z"/>
	<path d="M314.313,1040.297v23.049h-11.744v-23.049c-0.195-3.439-1.67-5.207-4.428-5.305h-0.658
		c-2.975,0.098-4.463,2.158-4.463,6.184v22.17h-11.707v-22.17c0-10.611,5.389-16.209,16.17-16.795h0.658
		c4.293,0.244,7.732,1.27,10.318,3.074c2.561-1.805,5.988-2.83,10.281-3.074h0.658c10.781,0.586,16.172,6.184,16.172,16.795v22.17
		h-11.709v-22.17c0-4.025-1.486-6.086-4.463-6.184h-0.658C315.983,1035.09,314.509,1036.857,314.313,1040.297z"/>
</g>
<path fill="#1B6889" d="M234.508,1286.227c-18.435,0-34.973,2.048-46.299,5.294c-4.234,1.214-7.746,2.594-10.348,4.099
	c-0.104,0.953-0.182,1.914-0.241,2.881c-0.069,1.127-0.111,2.262-0.111,3.406c0,1.047,0.032,2.086,0.09,3.119
	c0.06,1.063,0.148,2.121,0.263,3.169c2.069,1.196,4.709,2.313,7.833,3.332c11.312,3.687,28.967,6.06,48.814,6.06
	c18.28,0,34.698-2.013,46.016-5.211v-20.938C269.207,1288.239,252.789,1286.227,234.508,1286.227z M206.338,1309.164l-0.002-14.516
	l10.506,7.258l10.504,7.258H206.338z M262.68,1309.164h-21.008l10.504-7.258l10.506-7.258L262.68,1309.164z"/>
<path fill="#1B6889" d="M268.524,1137.267H88.484c-6.627,0-12,5.373-12,12v180.04c0,6.628,5.373,12,12,12h104.859
	c-6.729-7.03-11.679-15.773-14.117-25.519c-5.669,2.882-12.619,4.585-20.136,4.585c-13.156,0-24.591-5.199-30.423-12.848
	c5.832-7.647,17.267-12.847,30.423-12.847c0.294,0,0.583,0.017,0.875,0.021c-0.008-0.008-0.016-0.014-0.023-0.021
	c-8.765-8.765-12.624-20.144-10.979-29.56c9.417-1.646,20.796,2.213,29.561,10.978c1.232,1.231,2.355,2.519,3.391,3.84
	c8.601-20.571,28.901-35.03,52.593-35.03c18.907,0,35.648,9.214,46.016,23.388v-119.027
	C280.524,1142.64,275.151,1137.267,268.524,1137.267z M108.993,1214.67c-0.348,0.332-1.043,0.332-1.389,0l-8.342-5.81l29.081-20.825
	c0.463-0.254,0.463-0.751,0-1.166l-29.081-20.83l8.342-5.805c0.346-0.252,1.041-0.252,1.389,0l37.307,26.635
	c0.347,0.415,0.347,0.912,0,1.166L108.993,1214.67z M197.792,1214.918H146.56v-11.83h51.232V1214.918z"/>
<path fill="#1B6889" d="M520.971,1286.227c-18.435,0-34.973,2.048-46.299,5.294c-4.234,1.214-7.746,2.594-10.349,4.099
	c-0.104,0.953-0.182,1.914-0.24,2.881c-0.069,1.127-0.111,2.262-0.111,3.406c0,1.047,0.031,2.086,0.09,3.119
	c0.06,1.063,0.147,2.121,0.262,3.169c2.069,1.196,4.71,2.313,7.833,3.332c11.312,3.687,28.967,6.06,48.814,6.06
	c18.28,0,34.698-2.013,46.016-5.211v-20.938C555.669,1288.239,539.251,1286.227,520.971,1286.227z M492.801,1309.164l-0.002-14.516
	l10.506,7.258l10.504,7.258H492.801z M549.143,1309.164h-21.008l10.504-7.258l10.506-7.258L549.143,1309.164z"/>
<path fill="#1B6889" d="M554.987,1137.267h-180.04c-6.627,0-12,5.373-12,12v180.04c0,6.628,5.373,12,12,12h104.859
	c-6.729-7.03-11.679-15.773-14.117-25.519c-5.67,2.882-12.619,4.585-20.136,4.585c-13.156,0-24.591-5.199-30.423-12.848
	c5.832-7.647,17.267-12.847,30.423-12.847c0.294,0,0.583,0.017,0.875,0.021c-0.008-0.008-0.016-0.014-0.023-0.021
	c-8.765-8.765-12.624-20.144-10.979-29.56c9.417-1.646,20.796,2.213,29.561,10.978c1.231,1.231,2.354,2.519,3.391,3.84
	c8.601-20.571,28.901-35.03,52.593-35.03c18.907,0,35.648,9.214,46.016,23.388v-119.027
	C566.987,1142.64,561.614,1137.267,554.987,1137.267z M395.456,1214.67c-0.348,0.332-1.043,0.332-1.389,0l-8.342-5.81l29.081-20.825
	c0.463-0.254,0.463-0.751,0-1.166l-29.081-20.83l8.342-5.805c0.346-0.252,1.041-0.252,1.389,0l37.307,26.635
	c0.347,0.415,0.347,0.912,0,1.166L395.456,1214.67z M484.255,1214.918h-51.232v-11.83h51.232V1214.918z"/>
<g>
	<g>
		<path fill="#1B6889" d="M641.507,1259.428l-33.038-26.525l0.036,26.379h-12.805v-52.539l33.074,24.697v-23.965l12.732,0.072
			V1259.428z"/>
		<path fill="#1B6889" d="M654.678,1214.463c-0.536,0.902-1.269,1.635-2.195,2.195s-1.952,0.842-3.073,0.842
			c-1.122,0-2.135-0.27-3.037-0.807c-0.927-0.561-1.658-1.303-2.195-2.23c-0.561-0.977-0.841-2.014-0.841-3.109
			c0-1.123,0.269-2.146,0.805-3.074c0.585-0.951,1.329-1.695,2.231-2.232c0.902-0.535,1.915-0.805,3.037-0.805
			c1.121,0,2.146,0.27,3.073,0.805c0.902,0.537,1.634,1.281,2.195,2.232c0.536,0.928,0.806,1.951,0.806,3.074
			C655.484,1212.523,655.214,1213.561,654.678,1214.463z M655.447,1221.963v37.502h-11.672V1222L655.447,1221.963z"/>
		<path fill="#1B6889" d="M673.484,1231.037c-2.977,0.121-4.463,2.195-4.463,6.219v22.135h-11.709v-22.135
			c0-10.658,5.391-16.256,16.172-16.793h0.658c10.781,0.537,16.172,6.135,16.172,16.793v22.135h-11.708v-22.135
			c0-4.023-1.487-6.098-4.464-6.219H673.484z"/>
		<path fill="#1B6889" d="M692.143,1262.758c1.999,0,3.562-0.146,4.683-0.439c1.146-0.27,2.013-0.879,2.598-1.83
			c0.586-0.928,0.879-2.316,0.879-4.17v-34.355h11.671v35.488c0,2.732-0.244,5.098-0.731,7.1c-0.537,1.998-1.391,3.621-2.562,4.865
			c-1.22,1.342-2.866,2.316-4.938,2.928c-2.074,0.658-4.721,0.986-7.939,0.986L692.143,1262.758z M711.424,1214.463
			c-0.536,0.902-1.269,1.635-2.195,2.195s-1.952,0.842-3.073,0.842c-1.122,0-2.135-0.27-3.037-0.807
			c-0.927-0.561-1.658-1.303-2.195-2.23c-0.561-0.977-0.841-2.014-0.841-3.109c0-1.123,0.269-2.146,0.805-3.074
			c0.585-0.951,1.329-1.695,2.231-2.232c0.902-0.535,1.915-0.805,3.037-0.805c1.121,0,2.146,0.27,3.073,0.805
			c0.902,0.537,1.634,1.281,2.195,2.232c0.536,0.928,0.805,1.951,0.805,3.074C712.229,1212.523,711.96,1213.561,711.424,1214.463z"
			/>
		<path fill="#1B6889" d="M747.425,1258.293c-0.78,0.342-1.354,0.574-1.719,0.695c-2.586,1-5.293,1.5-8.123,1.5
			c-3.731,0-7.256-0.865-10.573-2.598c-3.317-1.756-5.952-4.146-7.903-7.17c-1.975-3.074-2.963-6.5-2.963-10.281
			c0-2.854,0.572-5.512,1.72-7.977c1.146-2.438,2.72-4.561,4.72-6.365c1.976-1.805,4.268-3.184,6.878-4.135
			c2.61-1,5.317-1.5,8.122-1.5c2.781,0,5.488,0.488,8.123,1.463c2.634,0.977,4.926,2.367,6.878,4.172
			c2.049,1.854,3.634,3.975,4.757,6.365c1.146,2.465,1.719,5.123,1.719,7.977l-0.036,19.061l-11.599-0.109V1258.293z
			 M729.169,1235.719c-0.903,1.439-1.354,3.014-1.354,4.721c0,2.586,0.975,4.816,2.926,6.695c1.928,1.854,4.208,2.781,6.842,2.781
			c2.658,0,4.951-0.928,6.879-2.781c1.951-1.879,2.927-4.109,2.927-6.695c0-1.707-0.452-3.281-1.354-4.721
			c-0.903-1.438-2.11-2.584-3.622-3.439c-1.488-0.828-3.098-1.242-4.83-1.242c-1.683,0-3.28,0.414-4.793,1.242
			C731.279,1233.135,730.072,1234.281,729.169,1235.719z"/>
		<path fill="#1B6889" d="M774.061,1219.291h-9.988l-3.183-11.816h35.16l3.072,11.816h-12.33v40.1h-12.731V1219.291z"/>
		<path fill="#1B6889" d="M830.917,1232.5c1.098,2.463,1.646,5.098,1.646,7.902v0.33c0,0.121-0.014,0.256-0.037,0.402l-0.072,0.621
			h-4.537v0.074h-25.172c0.293,2.049,1.184,3.816,2.67,5.305c1.879,1.854,4.074,2.781,6.586,2.781c2.537,0,4.732-0.928,6.586-2.781
			l0.074-0.074l0.109-0.146l0.109-0.109l0.072-0.109l6.293,9c-1.805,1.465-3.635,2.574-5.486,3.33
			c-2.488,0.975-5.074,1.463-7.758,1.463c-3.635,0-7.012-0.865-10.135-2.598c-3.195-1.756-5.719-4.158-7.572-7.207
			c-1.903-3.049-2.854-6.477-2.854-10.281c0-2.854,0.549-5.488,1.647-7.902c1.098-2.439,2.609-4.561,4.535-6.367
			c1.951-1.852,4.146-3.256,6.586-4.207c2.512-0.975,5.109-1.463,7.793-1.463s5.27,0.488,7.758,1.463
			c2.463,0.951,4.67,2.342,6.621,4.172C828.308,1227.877,829.82,1230.012,830.917,1232.5z M812.001,1231.037
			c-1.635,0-3.17,0.414-4.609,1.242c-0.879,0.537-1.732,1.295-2.561,2.27h14.342c-0.83-0.975-1.684-1.732-2.561-2.27
			C815.173,1231.451,813.636,1231.037,812.001,1231.037z"/>
		<path fill="#1B6889" d="M853.601,1231.695c-0.609-0.414-1.402-0.646-2.379-0.695h-0.658c-2.977,0.121-4.463,2.195-4.463,6.219
			v22.172h-11.709v-22.172c0-10.658,5.391-16.256,16.172-16.793h0.658c0.805,0.025,1.598,0.098,2.379,0.221V1231.695z"/>
		<path fill="#1B6889" d="M888.578,1236.379v23.049h-11.744v-23.049c-0.195-3.439-1.67-5.209-4.428-5.307h-0.658
			c-2.975,0.098-4.463,2.16-4.463,6.184v22.172h-11.707v-22.172c0-10.609,5.389-16.207,16.17-16.793h0.658
			c4.293,0.244,7.732,1.268,10.318,3.072c2.561-1.805,5.988-2.828,10.281-3.072h0.658c10.781,0.586,16.172,6.184,16.172,16.793
			v22.172h-11.709v-22.172c0-4.023-1.486-6.086-4.463-6.184h-0.658C890.248,1231.17,888.773,1232.939,888.578,1236.379z"/>
	</g>
</g>
<g>
	<g>
		<path fill="#1B6889" d="M67.243,1413.346l-33.038-26.525l0.036,26.381H21.437v-52.539l33.074,24.695v-23.965l12.732,0.074
			V1413.346z"/>
		<path fill="#1B6889" d="M80.414,1368.381c-0.536,0.902-1.269,1.635-2.195,2.195c-0.927,0.563-1.952,0.842-3.073,0.842
			c-1.122,0-2.135-0.268-3.037-0.805c-0.927-0.561-1.658-1.305-2.195-2.232c-0.561-0.975-0.841-2.012-0.841-3.109
			c0-1.121,0.269-2.146,0.805-3.074c0.585-0.951,1.329-1.693,2.231-2.23s1.915-0.805,3.037-0.805c1.121,0,2.146,0.268,3.073,0.805
			c0.902,0.537,1.634,1.279,2.195,2.23c0.536,0.928,0.806,1.953,0.806,3.074C81.22,1366.441,80.95,1367.479,80.414,1368.381z
			 M81.183,1375.881v37.502H69.511v-37.465L81.183,1375.881z"/>
		<path fill="#1B6889" d="M99.22,1384.955c-2.977,0.123-4.463,2.195-4.463,6.221v22.135H83.048v-22.135
			c0-10.66,5.391-16.258,16.172-16.795h0.658c10.781,0.537,16.172,6.135,16.172,16.795v22.135h-11.708v-22.135
			c0-4.025-1.487-6.098-4.464-6.221H99.22z"/>
		<path fill="#1B6889" d="M117.879,1416.676c1.999,0,3.562-0.146,4.683-0.439c1.146-0.268,2.013-0.877,2.598-1.828
			c0.586-0.928,0.879-2.318,0.879-4.172v-34.355h11.671v35.49c0,2.73-0.244,5.098-0.731,7.098c-0.537,2-1.391,3.623-2.562,4.865
			c-1.22,1.342-2.866,2.318-4.938,2.928c-2.074,0.658-4.721,0.988-7.939,0.988L117.879,1416.676z M137.16,1368.381
			c-0.536,0.902-1.269,1.635-2.195,2.195c-0.927,0.563-1.952,0.842-3.073,0.842c-1.122,0-2.135-0.268-3.037-0.805
			c-0.927-0.561-1.658-1.305-2.195-2.232c-0.561-0.975-0.841-2.012-0.841-3.109c0-1.121,0.269-2.146,0.805-3.074
			c0.585-0.951,1.329-1.693,2.231-2.23s1.915-0.805,3.037-0.805c1.121,0,2.146,0.268,3.073,0.805
			c0.902,0.537,1.634,1.279,2.195,2.23c0.536,0.928,0.805,1.953,0.805,3.074C137.965,1366.441,137.696,1367.479,137.16,1368.381z"/>
		<path fill="#1B6889" d="M173.161,1412.213c-0.78,0.342-1.354,0.572-1.719,0.695c-2.586,1-5.293,1.5-8.123,1.5
			c-3.731,0-7.256-0.867-10.573-2.598c-3.317-1.756-5.952-4.146-7.903-7.172c-1.975-3.072-2.963-6.5-2.963-10.281
			c0-2.854,0.572-5.512,1.72-7.975c1.146-2.439,2.72-4.561,4.72-6.367c1.976-1.805,4.268-3.184,6.878-4.135
			c2.61-0.998,5.317-1.5,8.122-1.5c2.781,0,5.488,0.488,8.123,1.465c2.634,0.975,4.926,2.365,6.878,4.17
			c2.049,1.854,3.634,3.977,4.757,6.367c1.146,2.463,1.719,5.121,1.719,7.975l-0.036,19.063l-11.599-0.109V1412.213z
			 M154.905,1389.639c-0.903,1.439-1.354,3.012-1.354,4.719c0,2.586,0.975,4.818,2.926,6.695c1.928,1.855,4.208,2.781,6.842,2.781
			c2.658,0,4.951-0.926,6.879-2.781c1.951-1.877,2.927-4.109,2.927-6.695c0-1.707-0.452-3.279-1.354-4.719
			c-0.903-1.439-2.11-2.586-3.622-3.439c-1.488-0.828-3.098-1.244-4.83-1.244c-1.683,0-3.28,0.416-4.793,1.244
			C157.015,1387.053,155.808,1388.199,154.905,1389.639z"/>
		<path fill="#1B6889" d="M199.797,1373.211h-9.988l-3.183-11.818h35.16l3.072,11.818h-12.33v40.1h-12.731V1373.211z"/>
		<path fill="#1B6889" d="M256.653,1386.418c1.098,2.465,1.646,5.1,1.646,7.904v0.328c0,0.123-0.014,0.256-0.037,0.402l-0.072,0.623
			h-4.537v0.072h-25.172c0.293,2.049,1.184,3.818,2.67,5.305c1.879,1.855,4.074,2.781,6.586,2.781c2.537,0,4.732-0.926,6.586-2.781
			l0.074-0.072l0.109-0.146l0.109-0.109l0.072-0.109l6.293,9c-1.805,1.463-3.635,2.572-5.486,3.328
			c-2.488,0.977-5.074,1.465-7.758,1.465c-3.635,0-7.012-0.867-10.135-2.598c-3.195-1.756-5.719-4.158-7.572-7.209
			c-1.903-3.049-2.854-6.475-2.854-10.279c0-2.855,0.549-5.488,1.647-7.904c1.098-2.438,2.609-4.561,4.535-6.365
			c1.951-1.854,4.146-3.256,6.586-4.207c2.512-0.977,5.109-1.465,7.793-1.465s5.27,0.488,7.758,1.465
			c2.463,0.951,4.67,2.342,6.621,4.17C254.044,1381.797,255.556,1383.932,256.653,1386.418z M237.737,1384.955
			c-1.635,0-3.17,0.416-4.609,1.244c-0.879,0.537-1.732,1.293-2.561,2.268h14.342c-0.83-0.975-1.684-1.73-2.561-2.268
			C240.909,1385.371,239.372,1384.955,237.737,1384.955z"/>
		<path fill="#1B6889" d="M279.337,1385.613c-0.609-0.414-1.402-0.645-2.379-0.695H276.3c-2.977,0.123-4.463,2.195-4.463,6.221
			v22.172h-11.709v-22.172c0-10.658,5.391-16.256,16.172-16.793h0.658c0.805,0.023,1.598,0.098,2.379,0.219V1385.613z"/>
		<path fill="#1B6889" d="M314.313,1390.297v23.049h-11.744v-23.049c-0.195-3.439-1.67-5.207-4.428-5.305h-0.658
			c-2.975,0.098-4.463,2.158-4.463,6.184v22.17h-11.707v-22.17c0-10.611,5.389-16.209,16.17-16.795h0.658
			c4.293,0.244,7.732,1.27,10.318,3.074c2.561-1.805,5.988-2.83,10.281-3.074h0.658c10.781,0.586,16.172,6.184,16.172,16.795v22.17
			h-11.709v-22.17c0-4.025-1.486-6.086-4.463-6.184h-0.658C315.983,1385.09,314.509,1386.857,314.313,1390.297z"/>
	</g>
</g>
</svg>
